<svg width="970" height="970" viewBox="0 0 970 970" fill="none" xmlns="http://www.w3.org/2000/svg">
<path d="M840.014 375H129.294C86.5891 375 52 409.657 52 452.445V811.79C52 854.579 86.5891 889.235 129.294 889.235H840.207C882.912 889.235 917.501 854.579 917.501 811.79V452.445C917.308 409.657 882.719 375 840.014 375ZM447.746 548.09C447.746 540.926 453.543 534.924 460.886 534.924H513.446C520.596 534.924 526.586 540.733 526.586 548.09V600.752C526.586 607.916 520.789 613.918 513.446 613.918H460.886C453.736 613.918 447.746 608.11 447.746 600.752V548.09ZM290.452 548.09C290.452 540.926 296.249 534.924 303.592 534.924H356.152C363.302 534.924 369.292 540.733 369.292 548.09V600.752C369.292 607.916 363.495 613.918 356.152 613.918H303.592C296.443 613.918 290.452 608.11 290.452 600.752V548.09ZM213.158 756.611C213.158 763.774 207.361 769.776 200.018 769.776H147.845C140.695 769.776 134.705 763.968 134.705 756.611V704.335C134.705 697.172 140.502 691.17 147.845 691.17H200.018C207.168 691.17 213.158 696.978 213.158 704.335V756.611ZM213.352 600.752C213.352 607.916 207.554 613.918 200.212 613.918H147.652C140.502 613.918 134.511 608.11 134.511 600.752V548.09C134.511 540.926 140.309 534.924 147.652 534.924H200.212C207.361 534.924 213.352 540.733 213.352 548.09V600.752ZM682.141 756.804C682.141 763.968 676.343 769.97 669 769.97H303.399C296.249 769.97 290.259 764.162 290.259 756.804V704.142C290.259 696.978 296.056 690.976 303.399 690.976H669.194C676.343 690.976 682.334 696.784 682.334 704.142V756.804H682.141ZM682.141 600.752C682.141 607.916 676.343 613.918 669 613.918H616.44C609.291 613.918 603.3 608.11 603.3 600.752V548.09C603.3 540.926 609.098 534.924 616.44 534.924H669.194C676.343 534.924 682.334 540.733 682.334 548.09V600.752H682.141ZM840.4 756.804C840.4 763.968 834.603 769.97 827.26 769.97H774.7C767.551 769.97 761.56 764.162 761.56 756.804V704.142C761.56 696.978 767.357 690.976 774.7 690.976H827.26C834.41 690.976 840.4 696.784 840.4 704.142V756.804ZM840.4 600.752C840.4 607.916 834.603 613.918 827.26 613.918H774.7C767.551 613.918 761.56 608.11 761.56 600.752V548.09C761.56 540.926 767.357 534.924 774.7 534.924H827.26C834.41 534.924 840.4 540.733 840.4 548.09V600.752Z" fill="url(#paint0_linear_1_4)"/>
<path d="M691.402 295.668C682.889 289.192 675.988 280.831 671.238 271.238C666.488 261.644 664.019 251.08 664.024 240.371C664.024 202.007 695.065 170.905 733.355 170.905C771.644 170.905 802.686 202.007 802.686 240.371C802.686 266.539 788.228 289.352 766.878 301.193" fill="url(#paint1_linear_1_4)"/>
<mask id="path-3-outside-1_1_4" maskUnits="userSpaceOnUse" x="617.141" y="124.212" width="233" height="361" fill="black">
<rect fill="white" x="617.141" y="124.212" width="233" height="361"/>
<path d="M846.569 240.647C846.569 178.088 795.792 127.212 733.355 127.212C670.918 127.212 620.141 178.088 620.141 240.647C620.141 276.367 636.449 309.285 664.851 330.953C671.784 336.242 681.672 334.9 686.95 327.954C692.229 321.007 690.89 311.1 683.957 305.811C663.433 290.181 651.694 266.421 651.694 240.608C651.694 195.455 688.329 158.748 733.394 158.748C778.459 158.748 815.094 195.455 815.094 240.608C815.094 270.368 798.943 297.838 772.905 312.284C772.59 312.482 772.314 312.718 771.999 312.916C771.684 313.113 771.369 313.231 771.093 313.468C765.696 317.534 762.545 319.902 762.072 361.976L682.145 343.702C673.675 341.768 665.206 347.057 663.276 355.582C661.345 364.068 666.624 372.554 675.133 374.488L774.244 397.183C775.426 397.459 776.568 397.578 777.75 397.578C781.295 397.578 784.762 396.393 787.559 394.144C791.301 391.144 793.507 386.605 793.507 381.79V373.304C793.507 352.109 794.137 341.334 794.61 336.045C810.544 325.767 823.649 311.649 832.727 294.982C841.804 278.316 846.563 259.634 846.569 240.647ZM765.42 441.468C764.238 441.468 763.017 441.349 761.796 441.033L673.399 420.272C671.383 419.801 669.48 418.935 667.798 417.725C666.116 416.515 664.689 414.984 663.599 413.22C662.508 411.457 661.776 409.495 661.443 407.447C661.111 405.4 661.184 403.307 661.66 401.288C663.63 392.802 672.099 387.513 680.608 389.526L769.005 410.287C777.474 412.26 782.753 420.786 780.744 429.271C779.937 432.738 777.984 435.83 775.202 438.044C772.42 440.258 768.973 441.464 765.42 441.468ZM747.812 481.608C746.591 481.608 745.409 481.45 744.188 481.174L683.484 466.767C681.471 466.292 679.571 465.423 677.894 464.211C676.216 462.999 674.793 461.468 673.707 459.705C672.62 457.942 671.891 455.981 671.561 453.935C671.231 451.89 671.307 449.799 671.784 447.783C672.748 443.712 675.285 440.191 678.837 437.993C682.39 435.795 686.668 435.1 690.732 436.06L751.436 450.467C759.905 452.479 765.144 460.965 763.135 469.451C762.325 472.913 760.37 475.998 757.588 478.205C754.806 480.412 751.36 481.611 747.812 481.608Z"/>
</mask>
<path d="M846.569 240.647C846.569 178.088 795.792 127.212 733.355 127.212C670.918 127.212 620.141 178.088 620.141 240.647C620.141 276.367 636.449 309.285 664.851 330.953C671.784 336.242 681.672 334.9 686.95 327.954C692.229 321.007 690.89 311.1 683.957 305.811C663.433 290.181 651.694 266.421 651.694 240.608C651.694 195.455 688.329 158.748 733.394 158.748C778.459 158.748 815.094 195.455 815.094 240.608C815.094 270.368 798.943 297.838 772.905 312.284C772.59 312.482 772.314 312.718 771.999 312.916C771.684 313.113 771.369 313.231 771.093 313.468C765.696 317.534 762.545 319.902 762.072 361.976L682.145 343.702C673.675 341.768 665.206 347.057 663.276 355.582C661.345 364.068 666.624 372.554 675.133 374.488L774.244 397.183C775.426 397.459 776.568 397.578 777.75 397.578C781.295 397.578 784.762 396.393 787.559 394.144C791.301 391.144 793.507 386.605 793.507 381.79V373.304C793.507 352.109 794.137 341.334 794.61 336.045C810.544 325.767 823.649 311.649 832.727 294.982C841.804 278.316 846.563 259.634 846.569 240.647ZM765.42 441.468C764.238 441.468 763.017 441.349 761.796 441.033L673.399 420.272C671.383 419.801 669.48 418.935 667.798 417.725C666.116 416.515 664.689 414.984 663.599 413.22C662.508 411.457 661.776 409.495 661.443 407.447C661.111 405.4 661.184 403.307 661.66 401.288C663.63 392.802 672.099 387.513 680.608 389.526L769.005 410.287C777.474 412.26 782.753 420.786 780.744 429.271C779.937 432.738 777.984 435.83 775.202 438.044C772.42 440.258 768.973 441.464 765.42 441.468ZM747.812 481.608C746.591 481.608 745.409 481.45 744.188 481.174L683.484 466.767C681.471 466.292 679.571 465.423 677.894 464.211C676.216 462.999 674.793 461.468 673.707 459.705C672.62 457.942 671.891 455.981 671.561 453.935C671.231 451.89 671.307 449.799 671.784 447.783C672.748 443.712 675.285 440.191 678.837 437.993C682.39 435.795 686.668 435.1 690.732 436.06L751.436 450.467C759.905 452.479 765.144 460.965 763.135 469.451C762.325 472.913 760.37 475.998 757.588 478.205C754.806 480.412 751.36 481.611 747.812 481.608Z" fill="url(#paint2_linear_1_4)"/>
<path d="M846.569 240.647C846.569 178.088 795.792 127.212 733.355 127.212C670.918 127.212 620.141 178.088 620.141 240.647C620.141 276.367 636.449 309.285 664.851 330.953C671.784 336.242 681.672 334.9 686.95 327.954C692.229 321.007 690.89 311.1 683.957 305.811C663.433 290.181 651.694 266.421 651.694 240.608C651.694 195.455 688.329 158.748 733.394 158.748C778.459 158.748 815.094 195.455 815.094 240.608C815.094 270.368 798.943 297.838 772.905 312.284C772.59 312.482 772.314 312.718 771.999 312.916C771.684 313.113 771.369 313.231 771.093 313.468C765.696 317.534 762.545 319.902 762.072 361.976L682.145 343.702C673.675 341.768 665.206 347.057 663.276 355.582C661.345 364.068 666.624 372.554 675.133 374.488L774.244 397.183C775.426 397.459 776.568 397.578 777.75 397.578C781.295 397.578 784.762 396.393 787.559 394.144C791.301 391.144 793.507 386.605 793.507 381.79V373.304C793.507 352.109 794.137 341.334 794.61 336.045C810.544 325.767 823.649 311.649 832.727 294.982C841.804 278.316 846.563 259.634 846.569 240.647ZM765.42 441.468C764.238 441.468 763.017 441.349 761.796 441.033L673.399 420.272C671.383 419.801 669.48 418.935 667.798 417.725C666.116 416.515 664.689 414.984 663.599 413.22C662.508 411.457 661.776 409.495 661.443 407.447C661.111 405.4 661.184 403.307 661.66 401.288C663.63 392.802 672.099 387.513 680.608 389.526L769.005 410.287C777.474 412.26 782.753 420.786 780.744 429.271C779.937 432.738 777.984 435.83 775.202 438.044C772.42 440.258 768.973 441.464 765.42 441.468ZM747.812 481.608C746.591 481.608 745.409 481.45 744.188 481.174L683.484 466.767C681.471 466.292 679.571 465.423 677.894 464.211C676.216 462.999 674.793 461.468 673.707 459.705C672.62 457.942 671.891 455.981 671.561 453.935C671.231 451.89 671.307 449.799 671.784 447.783C672.748 443.712 675.285 440.191 678.837 437.993C682.39 435.795 686.668 435.1 690.732 436.06L751.436 450.467C759.905 452.479 765.144 460.965 763.135 469.451C762.325 472.913 760.37 475.998 757.588 478.205C754.806 480.412 751.36 481.611 747.812 481.608Z" stroke="#9BB9F7" stroke-width="6" mask="url(#path-3-outside-1_1_4)"/>
<path d="M776.45 258.014C767.744 258.014 760.693 250.949 760.693 242.226C760.693 212.861 733.591 210.572 725.279 210.572C716.574 210.572 709.522 203.507 709.522 194.784C709.522 186.061 716.574 178.996 725.279 178.996C764.711 178.996 792.207 205.006 792.207 242.226C792.207 250.949 785.156 258.014 776.45 258.014ZM733.355 89.2031C724.688 89.2031 717.598 82.0986 717.598 73.4154V49.8127C717.598 41.1294 724.688 34.0249 733.355 34.0249C742.021 34.0249 749.112 41.1294 749.112 49.8127V73.4154C749.112 82.0986 742.021 89.2031 733.355 89.2031ZM630.58 131.83C627.62 134.787 623.611 136.447 619.432 136.447C615.252 136.447 611.243 134.787 608.284 131.83L591.621 115.135C588.67 112.169 587.012 108.152 587.012 103.965C587.012 99.777 588.67 95.7602 591.621 92.7948C594.58 89.838 598.589 88.1776 602.769 88.1776C606.948 88.1776 610.957 89.838 613.917 92.7948L630.58 109.49C636.725 115.648 636.725 125.712 630.58 131.83ZM591.975 234.806C591.975 243.489 584.885 250.594 576.218 250.594H552.662C543.995 250.594 536.905 243.489 536.905 234.806C536.905 226.122 543.995 219.018 552.662 219.018H576.218C584.885 219.018 591.975 226.122 591.975 234.806ZM836.13 131.83C833.179 128.865 831.521 124.848 831.521 120.66C831.521 116.473 833.179 112.456 836.13 109.49L852.793 92.7948C855.752 89.838 859.761 88.1776 863.941 88.1776C868.12 88.1776 872.129 89.838 875.089 92.7948C878.04 95.7602 879.697 99.777 879.697 103.965C879.697 108.152 878.04 112.169 875.089 115.135L858.426 131.83C852.281 137.987 842.236 137.987 836.13 131.83ZM874.734 234.806C874.734 226.122 881.825 219.018 890.491 219.018H914.048C922.714 219.018 929.805 226.122 929.805 234.806C929.805 243.489 922.714 250.594 914.048 250.594H890.491C881.825 250.594 874.734 243.489 874.734 234.806Z" fill="url(#paint3_linear_1_4)"/>
<defs>
<linearGradient id="paint0_linear_1_4" x1="671.038" y1="375" x2="298.463" y2="889.235" gradientUnits="userSpaceOnUse">
<stop stop-color="#45D4E7"/>
<stop offset="1" stop-color="#00FB83"/>
</linearGradient>
<linearGradient id="paint1_linear_1_4" x1="705" y1="252.668" x2="791" y2="288.168" gradientUnits="userSpaceOnUse">
<stop stop-color="#FAFE15"/>
<stop offset="1" stop-color="#FFCF26"/>
</linearGradient>
<linearGradient id="paint2_linear_1_4" x1="801" y1="70.668" x2="609" y2="461.168" gradientUnits="userSpaceOnUse">
<stop stop-color="#62ECFF"/>
<stop offset="1" stop-color="#00FB83"/>
</linearGradient>
<linearGradient id="paint3_linear_1_4" x1="882" y1="163.168" x2="248.5" y2="183.668" gradientUnits="userSpaceOnUse">
<stop stop-color="#45D4E7"/>
<stop offset="1" stop-color="#9BB9F7"/>
</linearGradient>
</defs>
</svg>
